<svg xmlns="http://www.w3.org/2000/svg" viewBox="0 0 24 24"><defs><style>.cls-1{fill:#fff;}</style></defs><g id="Layer_2" data-name="Layer 2"><g id="Layer_1-2" data-name="Layer 1"><path id="Facebook" class="cls-1" d="M24,22.67A1.32,1.32,0,0,1,22.67,24H16.56V14.71h3.12l.47-3.63H16.56V8.77c0-1,.29-1.76,1.79-1.76h1.92V3.77a23.5,23.5,0,0,0-2.79-.15c-2.77,0-4.66,1.69-4.66,4.79v2.67H9.69v3.63h3.13V24H1.32A1.32,1.32,0,0,1,0,22.67V1.32A1.32,1.32,0,0,1,1.32,0H22.67A1.32,1.32,0,0,1,24,1.32Z"/></g></g></svg>