<svg xmlns="http://www.w3.org/2000/svg" viewBox="0 0 29.71 49.54"><defs><style>.cls-1{fill:#004e59;}</style></defs><g id="Layer_2" data-name="Layer 2"><g id="Layer_1-2" data-name="Layer 1"><path class="cls-1" d="M13.55,5.52c3.8,2.07,7.81,3.93,11.94,5.8-3.19,1.36-6.34,2.86-9.39,4.32l-2.2,1.05c-.07-3.74-.18-7.46-.35-11.17M12.53,0a1.32,1.32,0,0,0-1.26.82,4.68,4.68,0,0,0,0,1.45q.88,16.5.44,33l-.07,3.47,0,1.69v.09a.88.88,0,0,0,.84.82.62.62,0,0,0,.23,0,1,1,0,0,0,.64-.59,6.13,6.13,0,0,0,.09-.69c.34-5.47.51-11,.42-16.47l-.1-3.48a1.34,1.34,0,0,1,.07-.62,1.16,1.16,0,0,1,.55-.6c4.45-2.1,8.9-4.3,13.46-6.17l.8-.33.4-.16a1.36,1.36,0,0,0,.27-.13.73.73,0,0,0,.24-1.23,4.65,4.65,0,0,0-1.19-.63l-1.59-.71C22.47,7.6,18.17,5.63,14.11,3.38c-.24-1.1.12-2.36-.75-3.09A1.27,1.27,0,0,0,12.53,0Z"/><path class="cls-1" d="M7.8,38.3c-.13,0-.15,0-.3.07l-.41.14c-4.26,1.28-10.94,5.37-4.25,8.85C7.74,49.75,13.6,50,18.93,49c2.1-.45,4.38-1.19,5.78-2.9,1.54-1.88.23-4.18-1.7-5.18a14.94,14.94,0,0,0-5.15-1.6,6.55,6.55,0,0,1-.72,4A5.27,5.27,0,0,1,8,43a4.51,4.51,0,0,1-.45-2.52C7.6,39.87,7.69,38.94,7.8,38.3Z"/><path class="cls-1" d="M16.89,39.16h0Z"/></g></g></svg>