<svg xmlns="http://www.w3.org/2000/svg" viewBox="0 0 46.05 43.64"><defs><style>.cls-1{fill:#004e59;}</style></defs><g id="Layer_2" data-name="Layer 2"><g id="Layer_1-2" data-name="Layer 1"><g id="_1OgnaI" data-name="1OgnaI"><path class="cls-1" d="M22.13,15.41v-.5c0-.63,0-1.26,0-1.89a4.58,4.58,0,0,1,.28-1.27c.18-.47.59-.5.81-.06a7.1,7.1,0,0,1,.56,1.54A14.34,14.34,0,0,1,24.06,15c.06.4.07.42.45.52a2.69,2.69,0,0,1,2.13,2.34,1.69,1.69,0,0,1-.49,1.46,4.08,4.08,0,0,1-1.49,1c-.38.16-.38.18-.33.57.1.93.2,1.85.29,2.78s.21,2.12.31,3.18c0,.21,0,.42,0,.62a.86.86,0,0,0,.12.41l1.26-1.6a44.89,44.89,0,0,1,4.32-5A10.87,10.87,0,0,1,32.15,20a1.27,1.27,0,0,1,2,.32c.19.25.34.53.52.79s.3.45.46.71a1,1,0,0,0,.21-.18l2.52-3a2.64,2.64,0,0,1,1.49-1,1.22,1.22,0,0,1,1.16.25,18.59,18.59,0,0,1,1.82,1.84c1,1.23,1.87,2.53,2.8,3.8a2.39,2.39,0,0,1,.13.21A1.12,1.12,0,0,1,45,25.27a1.2,1.2,0,0,1-1.7-.15c-.31-.36-.58-.77-.86-1.15l-.8-1.06-.53.56a6.35,6.35,0,0,1-.62.65,1.36,1.36,0,0,1-1.9.1A13.37,13.37,0,0,1,37.38,23c-.09-.1-.15-.22-.25-.35l-.81.54c.33.38.62.76,1,1.1.75.78,1.53,1.53,2.28,2.31a8.06,8.06,0,0,1,.81,1,1.07,1.07,0,0,1,0,1,1,1,0,0,1-1.37.6,4.33,4.33,0,0,1-1.42-1c-.52-.51-1-1.06-1.49-1.59l-.19-.22c-.08.14-.13.26-.19.37l-.67,1.27a2,2,0,0,1-.17.23c-.59.73-1.1.77-1.75.1a14,14,0,0,1-.92-1.15c0,.05-.14.12-.2.19l-.69.88c-.46.58-1,.53-1.34-.14-.2-.39-.4-.78-.61-1.17-.05-.1-.12-.21-.19-.34-.41.37-.79.72-1.18,1.06l-1.49,1.29a1.22,1.22,0,0,1-1.44.35l.54,8.44.7-.3c.72-.3,1.43-.62,2.16-.89a9.11,9.11,0,0,1,2.74-.47c1.06,0,2.11,0,3.17-.09a17.93,17.93,0,0,0,5.68-1.35q2-.83,4-1.68a1.43,1.43,0,0,1,1.95,1.47,1.13,1.13,0,0,1-.84,1.06l-3.4,1.1c-1.28.41-2.57.78-3.84,1.21a11.63,11.63,0,0,1-3.69.72c-.6,0-1.21.07-1.81.06a25.55,25.55,0,0,0-4,.38L26,39.46a.55.55,0,0,0-.46.29,1.14,1.14,0,0,1-1.63.44.77.77,0,0,0-.69-.07,39,39,0,0,1-6.84,1.33c-1.83.24-3.66.49-5.5.7-1.44.18-2.88.31-4.32.44-.73.07-1.46.07-2.17.17a14.87,14.87,0,0,0-1.6.38l-2,.47a.67.67,0,0,1-.28,0A.63.63,0,0,1,0,43.17a.48.48,0,0,1,.24-.56c.5-.34,1-.68,1.52-1a.55.55,0,0,0,.36-.59,20.69,20.69,0,0,1,.3-3.93c.27-1.83.54-3.65.84-5.48s.63-3.55,1-5.33c.11-.59.23-1.18.34-1.78a1.91,1.91,0,0,0,0-.24,8.92,8.92,0,0,1-1.07-.14A3.39,3.39,0,0,1,.71,21.67a4.46,4.46,0,0,1,0-2c.33-1.76.64-3.53,1-5.29A12.21,12.21,0,0,1,3,10.83a5.24,5.24,0,0,1,1.5-1.77,3.68,3.68,0,0,1,3.43-.54A6.93,6.93,0,0,1,9,9.13a5.08,5.08,0,0,1,1.65-1.42,2.42,2.42,0,0,0-.12-.23A4.73,4.73,0,0,1,12.25.66,4.49,4.49,0,0,1,15.58.12,6,6,0,0,1,17,.74a.64.64,0,0,1,.33.74.76.76,0,0,1-.63.67A4.18,4.18,0,0,1,16,2.2c-.52,0-1,0-1.56.06a2.53,2.53,0,0,0-2.24,2,2.37,2.37,0,0,0,1.32,2.91,2.41,2.41,0,0,0,3-.77A2.71,2.71,0,0,0,17,3.76,1.09,1.09,0,0,1,18,2.27a1.26,1.26,0,0,1,1.31.85,4.92,4.92,0,0,1-.39,4.28,4.58,4.58,0,0,1-2.8,2.26l-.19.06-.06.06a1.19,1.19,0,0,0,.09.15A6.53,6.53,0,0,1,17.3,12q.25.57.54,1.11a3.94,3.94,0,0,0,3.3,2.19C21.45,15.36,21.76,15.38,22.13,15.41ZM6.77,40.32l-.4-.5a3,3,0,0,1-.58-2.55,7.17,7.17,0,0,1,.73-2c.54-1.11,1.1-2.21,1.62-3.32a14.46,14.46,0,0,0,1.19-3.5c.08-.41.1-.84.21-1.25a1.14,1.14,0,0,1,1.79-.57,16.44,16.44,0,0,1,1.85,2c.94,1.26,1.79,2.59,2.66,3.91a10,10,0,0,1,.73,1.42,16.09,16.09,0,0,1,1,3.46,6.6,6.6,0,0,0,.4,1.21,1.26,1.26,0,0,0,1.84.46,1.43,1.43,0,0,0-.08-.22,13.79,13.79,0,0,1-1.22-4.67c-.13-1-.24-2.09-.42-3.13A6.22,6.22,0,0,0,16,27.19l-1.29-1.08a5.6,5.6,0,0,1-1.79-2.27,5.83,5.83,0,0,1-.32-2,10.38,10.38,0,0,1,.16-2,33.38,33.38,0,0,1,.77-3.4A1.36,1.36,0,0,1,15.9,16l.26.27a7.78,7.78,0,0,0,6.21,2.47,3.33,3.33,0,0,0,1.68-.47c.26-.16.28-.3.09-.54a1,1,0,0,0-.72-.34,6.76,6.76,0,0,0-.9,0A6.67,6.67,0,0,1,20,17a5.45,5.45,0,0,1-3.15-2.17,10.94,10.94,0,0,1-.92-1.92,7.27,7.27,0,0,0-2.31-3.08,1.42,1.42,0,0,0-.88-.3,2.59,2.59,0,0,0-2.05,1.12A6.84,6.84,0,0,0,9.41,13c-.42,1.39-.79,2.79-1.17,4.19-1,3.52-1.73,7.1-2.37,10.7-.35,2-.68,4-1,5.95S4.1,38,4,40.12c0,.42,0,.47.4.44C5.18,40.5,6,40.4,6.77,40.32ZM23.48,38.8c0-.1,0-.17,0-.23,0-1.4-.05-2.8-.09-4.19,0-.45-.05-.9-.08-1.35-.08-.9-.16-1.8-.23-2.7l-.18-2.62c-.08-1.1-.17-2.19-.23-3.28-.05-.89-.06-1.78-.09-2.67,0-.25-.07-.51-.11-.8A10.58,10.58,0,0,1,15,19c0,.18-.09.29-.12.41a10,10,0,0,0-.25,2.89,3.13,3.13,0,0,0,.94,2.22c.51.48,1.06,1,1.61,1.39a6.45,6.45,0,0,1,2.17,2.63,11.32,11.32,0,0,1,.71,2.73c.18,1.28.31,2.56.5,3.83a8.08,8.08,0,0,0,1.5,3.73c.14.19.26.26.48.18S23.16,38.89,23.48,38.8ZM16.23,40c0-.07,0-.1,0-.12a7.19,7.19,0,0,1-.7-2.48,10.59,10.59,0,0,0-1.37-4.31c-.84-1.38-1.74-2.72-2.61-4.08,0,0,0,0-.08,0s-.05.13-.07.19A21.63,21.63,0,0,1,10,33.28c-.51,1.14-1,2.27-1.57,3.39a1.84,1.84,0,0,0,.4,2.38,2.53,2.53,0,0,1,.48.75c.19.38.17.39.61.38.93,0,1.86-.07,2.79-.09L16,40ZM7.8,11.25a1.37,1.37,0,0,0-.35-.15,1.43,1.43,0,0,0-1.26.33,3.78,3.78,0,0,0-1,1.46,19.64,19.64,0,0,0-.9,3.19c-.27,1.29-.55,2.57-.82,3.86a2.61,2.61,0,0,0-.08.56.83.83,0,0,0,.64.89,4,4,0,0,0,.77.09c.35,0,.36,0,.44-.34.26-1.17.53-2.34.79-3.52a36.11,36.11,0,0,1,1.73-6.2S7.79,11.34,7.8,11.25ZM32.67,22.33a17,17,0,0,1-2.54,3.4l.61,1,.47-.66c.17-.23.33-.48.51-.7a.74.74,0,0,1,1.34.14c.12.23.23.47.35.7s.34.58.53.92c.27-.7.51-1.33.73-2a.47.47,0,0,0-.13-.35,16,16,0,0,1-1.7-2.31A2.17,2.17,0,0,0,32.67,22.33Zm6.89-2.43-.12,0c-.4.48-.8,1-1.19,1.45a.27.27,0,0,0,0,.26,3.06,3.06,0,0,0,1.17,1.08l1.23-1.21Z"/></g></g></g></svg>