<svg xmlns="http://www.w3.org/2000/svg" viewBox="0 0 159.37 32.98"><defs><style>.cls-1,.cls-2{fill:#fff;}.cls-2{fill-rule:evenodd;}</style></defs><g id="Layer_2" data-name="Layer 2"><g id="Layer_1-2" data-name="Layer 1"><path class="cls-1" d="M21.43,18.51A4.49,4.49,0,0,1,21,22.38C19.62,24.74,16.75,26,12.7,26h-.28A41.39,41.39,0,0,1,.61,24.31l-.25-.08A.52.52,0,0,1,0,23.57l.8-2.45a.52.52,0,0,1,.66-.34l.25.08a39.28,39.28,0,0,0,10.72,1.49c1.3,0,4.42-.11,5.44-1.82a.91.91,0,0,0,.14-.72,1.58,1.58,0,0,0-.88-.65,23.19,23.19,0,0,0-7.22-1l-1.38-.06C6.29,18,3.7,17.68,1.92,15.92A4.88,4.88,0,0,1,.48,12c.09-1.4.81-3.35,3.76-4.69C9.06,5.14,17.36,5.7,21,8.46l.21.16a.52.52,0,0,1,.1.73l-1.57,2.06a.51.51,0,0,1-.73.1l-.21-.16c-2.56-1.94-9.51-2.31-13-.7-1.06.48-1.61,1-1.65,1.63a1.29,1.29,0,0,0,.37,1.05c.88.87,2.66,1,4.27,1.1l1.34.06a25.68,25.68,0,0,1,8.38,1.28A4.94,4.94,0,0,1,21.43,18.51Z"/><path class="cls-1" d="M44,6.51A.52.52,0,0,1,44.56,6h2.58a.52.52,0,0,1,.52.52v19a.52.52,0,0,1-.52.53H44.56a.53.53,0,0,1-.53-.53V19a.52.52,0,0,0-.39-.51,13.39,13.39,0,0,0-5.77.34,16.13,16.13,0,0,1-5.84.45.52.52,0,0,0-.6.52v5.68a.53.53,0,0,1-.53.53H28.32a.52.52,0,0,1-.52-.53v-19A.52.52,0,0,1,28.32,6H30.9a.52.52,0,0,1,.53.52v8.55a.53.53,0,0,0,.39.51,13.58,13.58,0,0,0,5.74-.35,16.08,16.08,0,0,1,5.87-.45.52.52,0,0,0,.6-.52Z"/><path class="cls-1" d="M109.18,24.63l.46.45a.53.53,0,0,1-.37.9h-3.54a.54.54,0,0,1-.41-.2c-.46-.59-1.79-2.31-2.3-3l0-.05c-2.08-2.9-3.67-4.81-6.67-5H89.5a.52.52,0,0,0-.53.52v7.22a.52.52,0,0,1-.52.53H85.86a.52.52,0,0,1-.52-.53V6.51A.52.52,0,0,1,85.86,6h14.35a6,6,0,0,1,6,5.86,5.82,5.82,0,0,1-2.66,4.86.52.52,0,0,0-.09.8,28,28,0,0,1,2.44,3.08l0,.05A32.2,32.2,0,0,0,109.18,24.63Zm-9-15H89.5a.53.53,0,0,0-.53.53v3.4a.52.52,0,0,0,.53.52h10.71a2.32,2.32,0,0,0,2.4-2.22A2.32,2.32,0,0,0,100.21,9.62Z"/><path class="cls-1" d="M114.6,25.47v-19a.52.52,0,0,1,.52-.52h17.17a.52.52,0,0,1,.52.52V9.1a.52.52,0,0,1-.52.52H118.76a.53.53,0,0,0-.53.53v4.29a.52.52,0,0,0,.54.53,15.84,15.84,0,0,0,3.07-.4,12.32,12.32,0,0,1,6.83.07.53.53,0,0,1,.35.5v2.63a.53.53,0,0,1-.7.5l-.35-.12a7,7,0,0,0-2.38-.38h0a20.46,20.46,0,0,0-3.47.41,25,25,0,0,1-3.37.42.53.53,0,0,0-.52.53v2.7a.53.53,0,0,0,.53.53h13.53a.52.52,0,0,1,.52.52v2.59a.52.52,0,0,1-.52.52H115.13A.53.53,0,0,1,114.6,25.47Z"/><path class="cls-1" d="M159.11,18.51a4.52,4.52,0,0,1-.41,3.87c-1.4,2.36-4.28,3.61-8.32,3.61h-.28a41.39,41.39,0,0,1-11.81-1.68l-.25-.08a.52.52,0,0,1-.34-.66l.8-2.45a.53.53,0,0,1,.67-.34l.25.08a39.16,39.16,0,0,0,10.71,1.49c1.31,0,4.43-.11,5.45-1.82a1,1,0,0,0,.14-.72,1.58,1.58,0,0,0-.88-.65,23.25,23.25,0,0,0-7.23-1l-1.37-.06c-2.28-.11-4.86-.38-6.65-2.14A5,5,0,0,1,138.15,12c.09-1.4.82-3.35,3.77-4.69C146.74,5.14,155,5.7,158.67,8.46l.21.16a.51.51,0,0,1,.1.73l-1.56,2.06a.53.53,0,0,1-.74.1l-.21-.16c-2.55-1.94-9.5-2.31-13-.7-1.06.48-1.61,1-1.65,1.63a1.32,1.32,0,0,0,.36,1.05c.88.87,2.67,1,4.28,1.1l1.33.06a25.7,25.7,0,0,1,8.39,1.28A4.94,4.94,0,0,1,159.11,18.51Z"/><path class="cls-2" d="M75.54,26.26a3.19,3.19,0,0,1-.69-.8.67.67,0,0,1,.5-.5.27.27,0,0,0,.22-.17c.1-.26.68.14,1.52,1.07.4.44,1,1,1.21,1.28.53.54.55.6.31,1.05-.32.63-.44.64-1,.11-.29-.27-.66-.63-.81-.81l-.41-.44-.82-.79Zm-1.73-9.18c0-.13,0-.26-.06-.28a1.64,1.64,0,0,1,.14-.41l.16-.39h1.78L80.21,16l2.6,0,.07.28a.7.7,0,0,1-.06.5.37.37,0,0,0-.06.32c.22.35-.15.38-4.17.37-5.22,0-4.72,0-4.78-.3Zm-.11-1.66c-.18-1,0-1.16,1.12-1.27A8.13,8.13,0,0,0,76,14a7.15,7.15,0,0,1,.81-.17,7.34,7.34,0,0,0,1.92-.57,2.27,2.27,0,0,1,.7-.2,10.72,10.72,0,0,0,1.48-.39,4.07,4.07,0,0,1,1.18-.28c.15.06.24.38.17.66a2.35,2.35,0,0,0,0,.39c0,.16,0,.32,0,.36a1.51,1.51,0,0,1-.59.2,2.47,2.47,0,0,0-.7.22,1.15,1.15,0,0,1-.35.15l-1.4.4a24.63,24.63,0,0,1-4.61.87c-.72.07-.75.06-.8-.19Zm-.06,3.79a1.45,1.45,0,0,1,.07-1.28.34.34,0,0,1,.34-.09,3.64,3.64,0,0,0,.65.12,6.51,6.51,0,0,1,.73.12l.43.09a3.72,3.72,0,0,1,.51.17,24.34,24.34,0,0,0,3.48,1.06,10.68,10.68,0,0,1,1.4.34,3.42,3.42,0,0,0,.68.17,1.09,1.09,0,0,1,.5.26c.26.23.29.31.22.73-.1.58-.09.58-1.81.13-.72-.19-1.57-.39-1.89-.45s-1-.23-1.46-.38a17.66,17.66,0,0,0-2.86-.74,4.38,4.38,0,0,1-1-.25Zm-.7-5.36a1.86,1.86,0,0,1,0-1.19.45.45,0,0,1,.31-.14,1.89,1.89,0,0,0,.67-.44,4.32,4.32,0,0,1,1.11-.69,14.21,14.21,0,0,0,3.18-1.68,1.66,1.66,0,0,1,.53-.33.12.12,0,0,0,.12-.11,2,2,0,0,1,.58-.49c.46-.31.63-.37.79-.28s.2.2.15.52c-.12.87-.21,1.14-.4,1.2a1.73,1.73,0,0,0-.41.25,16.9,16.9,0,0,1-4.17,2.32,4.9,4.9,0,0,0-1.28.68c-.5.43-1.07.61-1.21.38Zm-.74,7c-.18-.18,0-.6.3-1s.35-.34.61-.22.29.17.29.23.06.08.14.05.37,0,1.2.57a21.63,21.63,0,0,1,2.13,1.49,8.06,8.06,0,0,0,1.26.77,4.73,4.73,0,0,1,.89.53,4.67,4.67,0,0,0,1,.56c1.09.52,1.13.58.77,1.19-.22.39-.34.49-.51.45s-.19-.1-.16-.16,0-.07-.09,0A1.48,1.48,0,0,1,79.3,25a3.35,3.35,0,0,0-.6-.34,1.57,1.57,0,0,1-.36-.21c-.16-.11-.63-.38-1-.6A14,14,0,0,1,76,23a32.41,32.41,0,0,0-3.53-2,.4.4,0,0,1-.23-.12Zm-.39-8.49c-.33-.7-.27-.87.65-1.73.47-.45,1.13-1.13,1.46-1.52A11.8,11.8,0,0,1,75,7.94c.28-.22,1-.93,1.67-1.56A9.5,9.5,0,0,1,78,5.23c.26,0,.49.56.43,1.06s-.14.58-1.09,1.48C76.75,8.32,76.14,8.86,76,9s-1,1-2,1.93a13.07,13.07,0,0,1-1.85,1.71c-.11,0-.27-.15-.36-.32Zm-.24,10.32c-.26-.22-.28-.28-.18-.56.18-.46.44-.7.76-.7s.69.23.69.39A.5.5,0,0,0,73,22c.08.09.25.28.36.42a2.53,2.53,0,0,0,.57.48c.2.11.36.28.36.36s0,.12.11.08.45.55.37.85-.34.66-.47.66a11.76,11.76,0,0,1-1.86-1.44c-.31-.28-.7-.63-.87-.77ZM70.24,11.3a1.37,1.37,0,0,1,.17-1.57c.43-.61,1.49-2.41,2.12-3.59a6.08,6.08,0,0,1,.6-1,.55.55,0,0,0,.15-.28,3.18,3.18,0,0,1,.32-.64,5.74,5.74,0,0,0,.47-.92,3.15,3.15,0,0,1,.43-.75c.27-.33.32-.35.51-.21s.23.34.26.76a2.32,2.32,0,0,1-.35,1.45,24.19,24.19,0,0,1-1.46,2.63c-.27.44-.59,1-.72,1.26-.64,1.25-1.94,3.06-2.21,3.06a.49.49,0,0,1-.29-.21Zm-.87,11.82a.22.22,0,0,1-.07-.23,3,3,0,0,0,.13-.3.94.94,0,0,1,.43-.34c.34-.15.41-.15.66,0a.89.89,0,0,1,.36.46A3.23,3.23,0,0,0,71.51,24s.09.1.09.23.34.89.47.89.09.09.09.2a.83.83,0,0,0,.2.43,2.9,2.9,0,0,1,.72,1.41c0,.05.06.09.15.09a.17.17,0,0,1,.17.15,2.08,2.08,0,0,0,.33.62,2.05,2.05,0,0,1,.34.57.11.11,0,0,0,.1.11c.06,0,.17.18.25.4s.17.39.21.39a1.51,1.51,0,0,1,.33.49c.25.49.25.5.05.79s-.58.47-.87.19A18.05,18.05,0,0,1,73,29.22l-1.31-2A12,12,0,0,1,71,26.13c-.71-1.4-1.52-2.9-1.62-3Zm-1.11-13c-.2-.07-.36-.17-.36-.22s.48-1.82.9-3.24c.12-.4.3-1.21.4-1.79a19.23,19.23,0,0,1,1-3.78c.23-.48.3-.54.65-.57a.94.94,0,0,1,.71.23l.32.26-.23.44a22.75,22.75,0,0,0-1.08,3.81,10,10,0,0,0-.22,1,2.8,2.8,0,0,1-.31,1,1.54,1.54,0,0,0-.16.45,3,3,0,0,1-.16.68.55.55,0,0,0,0,.12c0,.18-.2.65-.28.87l-.22.53c-.13.33-.34.38-.89.18ZM68,24.73c-.24-.76-.21-.89.24-1.3s.92-.51.94-.29a5.57,5.57,0,0,0,.4,1.82,4.15,4.15,0,0,1,.2.67,5.32,5.32,0,0,0,.22.78,4.45,4.45,0,0,1,.36,1.12,4.74,4.74,0,0,0,.26.79A6.86,6.86,0,0,1,71,30.54a1.38,1.38,0,0,0,.08.59c.19.69.12,1-.3,1.31s-.36.24-.49.06a.81.81,0,0,1-.14-.43.55.55,0,0,0-.11-.34,3.22,3.22,0,0,1-.24-.95,17.51,17.51,0,0,0-1-3.39,7.76,7.76,0,0,1-.35-1.22,1.7,1.7,0,0,0-.16-.58,8.74,8.74,0,0,1-.33-.86ZM65.87,5.4s0-.79,0-3.92l0-1.24.34-.15a.69.69,0,0,1,.64,0c.34.14.74.74.63.93a3.66,3.66,0,0,0-.11.86c0,.41-.06,1.08-.09,1.49a1.76,1.76,0,0,0,0,.82c.06,0,.08.28,0,.54a19.09,19.09,0,0,0,0,3.27c.05.25.12.73.16,1.08.07.63.07.64-.26.82-.67.34-1,.17-1.09-.58,0-.23-.08-.6-.11-.81s-.08-1-.11-1.72,0-1.35-.07-1.37Zm0,24.39a8.27,8.27,0,0,1,0-1.08c0-.49.06-1.8.09-2.91.06-1.87.08-2,.28-2.13s.23-.15.23-.2.65-.1.9,0,.21.23.2.53a1.66,1.66,0,0,1-.08.53c-.08.13-.1.37-.15,1.76a4.48,4.48,0,0,1-.1,1,9.92,9.92,0,0,0,0,1.44c0,.76,0,2,.06,2.72l0,1.33-.27.07a3,3,0,0,1-.62.07h-.33L66,31.47c0-.83-.1-1.58-.12-1.68ZM62.09,2.54a.18.18,0,0,1,0-.24c.07,0,.08-.22,0-.41s0-.37.2-.48,1.12,0,1,.18a.2.2,0,0,0,0,.23c.06,0,.1.18.1.32a1,1,0,0,0,.17.47,1,1,0,0,1,.17.41,1.07,1.07,0,0,0,.1.39,10.23,10.23,0,0,1,.35,1.09c.14.5.29,1,.35,1.18s.27,1,.49,1.79.45,1.72.52,2a1.54,1.54,0,0,1,.07.62,1.73,1.73,0,0,1-1.2.38,12.33,12.33,0,0,1-.86-2.69c-.09-.44-.24-1-.32-1.24S63,5.32,62.7,4.39s-.56-1.75-.61-1.85ZM58.37,4.27c-.21-.19-.23-.38-.06-.51s0-.18,0-.32c-.2-.36-.08-.51.43-.54s.87.11.95.53a1.3,1.3,0,0,0,.29.56,2.07,2.07,0,0,1,.38.59,2.56,2.56,0,0,0,.39.61,1.45,1.45,0,0,1,.31.57,1.9,1.9,0,0,0,.17.43c.1.13.84,1.51,1.1,2,.09.2.21.37.26.37s.09.06.09.15a5.37,5.37,0,0,0,.44,1,3,3,0,0,1,.38,1,1.56,1.56,0,0,1-.88.49c-.18,0-.42-.29-.79-.95l-.57-1a8.47,8.47,0,0,1-.49-1,10.5,10.5,0,0,0-.47-.95c-.13-.25-.41-.79-.62-1.21a2.77,2.77,0,0,0-.47-.75,1.57,1.57,0,0,1-.34-.5,3,3,0,0,0-.46-.69Zm-.22,26.07a.85.85,0,0,1,.19-.65,10.19,10.19,0,0,0,.6-1.23,14.59,14.59,0,0,1,2.15-3.79,13.22,13.22,0,0,0,1.07-1.33c.59-.83.92-1,1.54-.69a1.42,1.42,0,0,1,.45.29.55.55,0,0,0,.38.11c.39,0,.84.4.73.66a6.27,6.27,0,0,0-.18.69c0,.27-.17.84-.27,1.25a2.66,2.66,0,0,0-.1.88.26.26,0,0,1-.06.28,1.14,1.14,0,0,0-.17.53,21.93,21.93,0,0,1-.39,2.46c-.06.22-.14.63-.18.89a8.54,8.54,0,0,1-.17.93c-.06.25-.14.57-.17.71-.09.35-.4.49-.92.4s-.62-.26-.47-.76.31-1.43.68-3.82c.12-.8.3-1.89.4-2.42a11.78,11.78,0,0,0,.16-1.35V24l-.3.39c-.17.21-.49.58-.72.81a6.93,6.93,0,0,0-.73,1c-.17.29-.47.79-.67,1.09a2.64,2.64,0,0,0-.37.72.67.67,0,0,1-.15.34,6.24,6.24,0,0,0-.45.91,4.21,4.21,0,0,1-.58,1c-.48.52-1.17.57-1.29.09Zm-2.94-1.53a1.57,1.57,0,0,1,0-.63c0-.52.08-.6.69-1.16a6,6,0,0,1,.74-.61,16.69,16.69,0,0,0,3.08-3.08L60.8,22l.59-.66c.51-.6.92-.26.86.72,0,.65,0,.62-1.15,1.79-.57.58-1.23,1.33-1.48,1.65a13.94,13.94,0,0,1-2.81,2.54c-1,.72-1.4.93-1.6.73ZM55.29,7c-.56-.57-.58-.61-.47-1s.49-.74.73-.74a2.41,2.41,0,0,1,.67.51c.29.28,1,.9,1.49,1.37S59.06,8.49,59.56,9s1.13,1.09,1.42,1.33a4.56,4.56,0,0,1,.86,1l.33.53-.35.41a1.46,1.46,0,0,1-.47.41,20.32,20.32,0,0,1-2.29-2.15c-.34-.35-.85-.82-1.13-1.05-.92-.76-2-1.78-2.64-2.39ZM52.74,25.32a1.75,1.75,0,0,1,0-1,1.48,1.48,0,0,1,.65-.41,4.08,4.08,0,0,0,.65-.29c.07-.05.65-.36,1.3-.68s1.29-.69,1.44-.79a1.1,1.1,0,0,1,.47-.19c.11,0,.2-.05.2-.11s.08-.11.17-.11.17,0,.17-.09a3,3,0,0,1,.75-.53l.94-.56c1.29-.79,1.49-.76,1.42.2,0,.78-.22,1-1.37,1.56-.37.19-1,.56-1.47.82A28,28,0,0,1,53,25.52a.28.28,0,0,1-.26-.2Zm0-15.36c-.47-.41,0-1.56.55-1.36a.7.7,0,0,1,.31.21.2.2,0,0,0,.23,0,.19.19,0,0,1,.24.11c0,.1.11.19.17.19a3.68,3.68,0,0,1,.78.46c.38.25.94.59,1.26.76a10.61,10.61,0,0,1,1.19.68,4.42,4.42,0,0,0,.84.49A3,3,0,0,1,59,12c.18.16.59.47.91.69a2.41,2.41,0,0,1,.63.53,1.72,1.72,0,0,1-.55,1,10.42,10.42,0,0,1-1.65-1c-.84-.56-1.56-1-1.6-1s-.74-.39-1.54-.88-1.65-1-1.86-1.08a2.75,2.75,0,0,1-.59-.37ZM51.2,21.53c-.07,0-.1-.27-.08-.53,0-.58.44-.84,1.29-.85a1.52,1.52,0,0,0,.64-.11,3.42,3.42,0,0,1,1.46-.31,3.18,3.18,0,0,0,.84-.21,8.46,8.46,0,0,1,1.12-.4l.9-.28.31-.1c.14,0,.25-.12.25-.17s.24-.15.53-.23a1.59,1.59,0,0,0,.62-.27c.14-.19.65.47.6.76,0,.13-.08.37-.11.53-.07.34-.2.4-1.69.87a24.45,24.45,0,0,1-3.46.91c-.67.13-1.26.25-1.3.28a8.32,8.32,0,0,1-1.92.11ZM50,17.23A3.15,3.15,0,0,1,50,16a2.37,2.37,0,0,1,1.19.13c.12.08,7.33.06,7.41,0a2.08,2.08,0,0,0-.66-.23l-1.48-.41L55.07,15c-.54-.14-3.29-1.13-3.88-1.4-.27-.13-.29-.17-.19-.55.18-.65.34-.76.94-.6.27.08,1,.34,1.62.58a13,13,0,0,0,1.71.57l.76.16a2.65,2.65,0,0,1,.48.16,1.73,1.73,0,0,0,.51.13.53.53,0,0,1,.3.09,6,6,0,0,0,1.84.48,3.9,3.9,0,0,1,1,.24.52.52,0,0,1-.09.64.66.66,0,0,0-.2.74c.12.26,0,1-.12,1.1s-1.47.09-3.16.13l-4,.1A5.54,5.54,0,0,1,50,17.23Z"/></g></g></svg>