<svg xmlns="http://www.w3.org/2000/svg" viewBox="0 0 43.77 47.97"><defs><style>.cls-1{fill:#004e59;}</style></defs><g id="Layer_2" data-name="Layer 2"><g id="Layer_1-2" data-name="Layer 1"><path class="cls-1" d="M40.45,37c.83,0,1.5,0,2.15,0,1.07.08,1.47.78.92,1.68-1.29,2.08-2.6,4.14-4,6.18A6.88,6.88,0,0,1,33.41,48c-3.45,0-6.9,0-10.35,0-5,0-10,0-15,0a5.85,5.85,0,0,1-5.5-3.09c-.66-1.12-1.38-2.2-2.08-3.29-.32-.51-.68-1-.31-1.64s.91-.54,1.48-.54c4.26,0,8.53,0,12.79,0a34.64,34.64,0,0,0,8.25-1A47.8,47.8,0,0,1,34.89,37c1,0,1.91,0,2.87,0a43.81,43.81,0,0,0-9.34-1A45.16,45.16,0,0,0,18.51,37c-.62.14-1.32.48-1.85-.22s0-1.19.18-1.77c.73-2.21,1.59-4.39,2.14-6.65a35.11,35.11,0,0,0,.73-11.25c-.32-4.15-1.67-8-2.84-12-.35-1.17-.72-2.33-1.09-3.5-.16-.51-.3-1,.17-1.44s1-.21,1.47,0A38.19,38.19,0,0,1,34,13.77a38.25,38.25,0,0,1,6.39,17.34,45.39,45.39,0,0,1,.08,4.67ZM19,3.67l-.24.2q.79,2.55,1.6,5.1a37.77,37.77,0,0,1,1.76,9.48A35,35,0,0,1,19.84,33a11.59,11.59,0,0,0-.31,1.12A45.42,45.42,0,0,1,38,34.2a32.28,32.28,0,0,0-4.29-16.67A33.25,33.25,0,0,0,19,3.67ZM3.82,41.38c.68,1.08,1.26,2,1.81,2.88A3.13,3.13,0,0,0,8.5,45.83q12.22,0,24.47,0a4.81,4.81,0,0,0,3.08-1.07,1.88,1.88,0,0,0,.39-.35L40,39.09c-.56,0-.89,0-1.23,0-3,.06-6,.07-8.95.2a21.58,21.58,0,0,0-4.31.57A48.66,48.66,0,0,1,11.9,41.39c-2.29-.08-4.58,0-6.87,0Z"/><path class="cls-1" d="M19.24,20a34.45,34.45,0,0,1-4.1,16.33c-.47.87-.87,1-1.82.68a13.94,13.94,0,0,0-10.09,0,1.1,1.1,0,0,1-1.33-.18c-.43-.46-.25-.95,0-1.44C3,33.16,4.07,30.9,5.09,28.59A98.65,98.65,0,0,0,11.17,8.78c.36-1.74.74-3.47,1.09-5.21.11-.5.27-.95.83-1.06s.9.28,1.15.7a33.57,33.57,0,0,1,4.6,12.42C19.09,17.31,19.16,19,19.24,20ZM13.64,7.3c-1.18,4.42-2.35,8.91-3.59,13.38A82.83,82.83,0,0,1,4.78,33.91a17.69,17.69,0,0,1,8.64.51C18.56,25.56,17.74,13.87,13.64,7.3Z"/></g></g></svg>