<svg xmlns="http://www.w3.org/2000/svg" viewBox="0 0 170.21 170.21"><defs><style>.cls-1{fill:#004e59;}.cls-2{fill:#fff;}.cls-3{fill:#ff9e18;fill-rule:evenodd;}</style></defs><g id="Layer_2" data-name="Layer 2"><g id="Layer_1-2" data-name="Layer 1"><circle class="cls-1" cx="85.1" cy="85.1" r="85.1"/><path class="cls-2" d="M17.76,108.43a.34.34,0,0,0-.31-.22l-1.51,0a.33.33,0,0,1-.32-.21l-.6-1.52c-.11-.28,0-.47.34-.47l9.69.18a.34.34,0,0,1,.33.21l.73,1.87a.32.32,0,0,1-.09.37l-7,6.74c-.23.21-.46.16-.57-.12l-.62-1.59a.32.32,0,0,1,.09-.38L19,112.21a.34.34,0,0,0,.08-.37Zm2.71,1.74c.12.28.34.33.56.12l1.52-1.44c.37-.35.28-.58-.23-.59l-2.1,0c-.3,0-.43.18-.32.46Z"/><path class="cls-2" d="M26.62,114.16a.32.32,0,0,1,.12-.47l1-.62a.32.32,0,0,1,.47.12l4.54,7.51a.33.33,0,0,1-.12.47l-1,.62a.32.32,0,0,1-.47-.12l-1.47-2.42a.32.32,0,0,0-.47-.12l-6.07,3.67a.32.32,0,0,1-.47-.12l-.89-1.48a.31.31,0,0,1,.11-.47L28,117.06a.32.32,0,0,0,.12-.47Z"/><path class="cls-2" d="M42.85,138.31a5.24,5.24,0,1,1-.36-7.39A5.09,5.09,0,0,1,42.85,138.31ZM41,136.64c1.34-1.47,1.27-3.24.15-4.26s-2.88-.93-4.22.54-1.27,3.22-.15,4.25S39.68,138.1,41,136.64Z"/><path class="cls-2" d="M51.64,147.43a.32.32,0,0,1,.11.47l-.62,1a.33.33,0,0,1-.48.11l-6.52-4a.33.33,0,0,1-.12-.47l4.66-7.68a.33.33,0,0,1,.48-.11l1.46.89a.32.32,0,0,1,.12.47l-3.68,6.06a.32.32,0,0,0,.12.47Z"/><path class="cls-2" d="M55.39,151.36a.32.32,0,0,1-.21-.44l3.16-8.4a.31.31,0,0,1,.44-.2L63.2,144a4.84,4.84,0,0,1-3.39,9Zm5-6.43a.34.34,0,0,0-.45.2L58.1,150a.34.34,0,0,0,.2.45l2,.74c1.28.48,2.52-.29,3.15-2s.19-3.07-1.09-3.55Z"/><path class="cls-2" d="M76.07,149.28a.32.32,0,0,1-.32-.37l.09-1.19a.32.32,0,0,1,.37-.32L85,148a.33.33,0,0,1,.32.36l-.09,1.2a.32.32,0,0,1-.37.32l-2.83-.2a.33.33,0,0,0-.37.32l-.51,7.06a.33.33,0,0,1-.37.32L79,157.3a.33.33,0,0,1-.32-.37l.51-7.07a.32.32,0,0,0-.32-.37Z"/><path class="cls-2" d="M98.47,151.66a5.24,5.24,0,1,1-5.81-4.58A5.09,5.09,0,0,1,98.47,151.66ZM96,152c-.23-2-1.61-3.08-3.12-2.91s-2.58,1.57-2.35,3.54,1.59,3.07,3.1,2.9S96.23,153.91,96,152Z"/><path class="cls-2" d="M107.6,143.91a.34.34,0,0,1,.39.13l3.16,4.43c.52.73.78.62.63-.26l-.87-5.16a.35.35,0,0,1,.23-.39l1.56-.55a.32.32,0,0,1,.46.29l1.06,9.15a.33.33,0,0,1-.23.36l-2.12.75a.35.35,0,0,1-.39-.11l-3-4c-.39-.52-.65-.43-.62.22l.17,4.94a.35.35,0,0,1-.24.33l-2.13.75a.32.32,0,0,1-.4-.13l-4.92-7.79a.32.32,0,0,1,.17-.52l1.7-.6a.35.35,0,0,1,.42.16l2.57,4.56c.44.78.7.7.65-.2l-.34-5.42a.35.35,0,0,1,.23-.34Z"/><path class="cls-2" d="M123.15,141.23c.59.23.75,0,.42-.51l-2.2-3.49a.33.33,0,0,1,.11-.48l1.37-.87a.33.33,0,0,1,.48.11l4.78,7.6a.32.32,0,0,1-.11.47l-1.52,1a.39.39,0,0,1-.32,0l-5.94-2.4c-.59-.23-.75,0-.42.51l2.55,4a.33.33,0,0,1-.11.48l-1.38.87a.32.32,0,0,1-.47-.11l-4.79-7.6a.32.32,0,0,1,.11-.47l1.92-1.21a.34.34,0,0,1,.31,0Z"/><path class="cls-2" d="M137.86,135.64a.32.32,0,0,1-.49,0l-6.71-6a.32.32,0,0,1,0-.49l3.32-3.74a2.71,2.71,0,0,1,3.94-.23,2.32,2.32,0,0,1,.65,1,.44.44,0,0,0,.57.33,2.65,2.65,0,0,1,2.2.71,2.92,2.92,0,0,1,.26,4.22Zm-4.22-7a.32.32,0,0,0,0,.49l.81.72a.32.32,0,0,0,.49,0l1.18-1.33a.91.91,0,1,0-1.33-1.18Zm4.38.62-1.62,1.83a.32.32,0,0,0,0,.49l1.12,1a.34.34,0,0,0,.49,0l1.62-1.83A1.11,1.11,0,1,0,138,129.3Z"/><path class="cls-2" d="M146,122.3a.33.33,0,0,0,0,.38l.9,1.21a.33.33,0,0,1,0,.39l-.83,1.4c-.16.26-.39.27-.58,0l-5.79-7.78a.32.32,0,0,1,0-.39l1-1.72a.33.33,0,0,1,.35-.16l9.6,1.41c.31,0,.41.26.26.52l-.88,1.47a.34.34,0,0,1-.35.16l-1.5-.22a.36.36,0,0,0-.34.17Zm-.28-3.21c.15-.26.05-.47-.24-.51l-2.08-.33c-.5-.07-.63.14-.32.55l1.26,1.67a.31.31,0,0,0,.57,0Z"/><path class="cls-2" d="M148.58,108.23c.31-.07.39-.28.21-.54l-2.56-3.52a.34.34,0,0,1,0-.31l.58-1.51c.13-.36.38-.38.6-.08l4,5.43a.35.35,0,0,0,.15.11l2.77,1.06a.31.31,0,0,1,.2.44l-.61,1.61a.33.33,0,0,1-.44.2l-2.75-1.05a.4.4,0,0,0-.19,0l-6.59,1.39c-.37.08-.54-.1-.4-.46l.62-1.63a.34.34,0,0,1,.24-.2Z"/><path class="cls-2" d="M23.54,57.62c2.24.78,2.16,3.19,1.35,5.48a6.65,6.65,0,0,1-2.61,3.47l-1.2-1.69A4.63,4.63,0,0,0,23,62.54c.26-.75.8-2.2-.14-2.53-1.45-.5-3,5.21-6.09,4.13-2.1-.74-2.19-3.15-1.53-5A5.46,5.46,0,0,1,17.76,56l1.08,1.87a3,3,0,0,0-1.74,1.91c-.39,1.1-.22,1.76.35,2C18.87,62.24,20.51,56.56,23.54,57.62Z"/><path class="cls-2" d="M24.7,52.66l3.4,1.89-1.17,2.1L18.48,52l1.17-2.1,3.4,1.9L25.16,48l-3.4-1.9L22.93,44l8.45,4.7-1.17,2.1L26.8,48.87Z"/><path class="cls-2" d="M29.62,35.25l1.48-1.8,4.65,3.83c2,1.66,1.79,4.12.19,6.07s-4,2.65-6,1l-4.65-3.83,1.54-1.87,4.73,3.9a2.22,2.22,0,0,0,2.79-3.39Z"/><path class="cls-2" d="M44.67,30.49c1.56,1.8.3,3.84-1.53,5.44a6.71,6.71,0,0,1-4,1.73l-.21-2.07a4.6,4.6,0,0,0,2.83-1.09c.59-.52,1.78-1.51,1.12-2.26-1-1.16-5.19,3-7.33.58-1.46-1.68-.34-3.83,1.15-5.12a5.53,5.53,0,0,1,3.74-1.48v2.17a3,3,0,0,0-2.45.8c-.89.77-1.07,1.42-.67,1.88C38.33,32.21,42.57,28.08,44.67,30.49Z"/><path class="cls-2" d="M54.64,24.24l-2.41-6.59,2.05-1.19,2.94,9.46-2.4,1.39-4.64-4.22,1.35,6.12-2.41,1.4-6.74-7.27,2.18-1.25,4.52,5.37-1.76-7,2.14-1.24Z"/><path class="cls-2" d="M61.72,24.06l-2.25.77.64-10.44,2.34-.8,6.91,7.85-2.32.8-1.3-1.49L61.83,22.1Zm.4-7.45-.18,3.45,2.45-.84Z"/><path class="cls-2" d="M74.3,10.81a3.61,3.61,0,0,1,4.24,3.1,3.61,3.61,0,0,1-3,4.28l-2.46.4.34,2.16L71,21.13l-1.54-9.54Zm.39,5.6a1.72,1.72,0,0,0,1.4-2.1,1.71,1.71,0,0,0-2-1.55l-2,.31.59,3.66Z"/><path class="cls-2" d="M94.57,20.16l-8.31-.6.68-9.64,2.4.17-.54,7.76,5.91.42Z"/><path class="cls-2" d="M98.12,20.88l-2.31-.58L102,11.89l2.4.6L106,22.83l-2.38-.59-.28-1.95-4-1Zm4.39-6-2,2.8,2.52.62Z"/><path class="cls-2" d="M119.86,18.37l-5.68,2.09,2.21,7-2.72-1.22L112,21.27l-1,.38-1.24,2.77-2.19-1,3.95-8.83,2.19,1-1.55,3.47,5.24-1.83Z"/><path class="cls-2" d="M124.38,32.72l-6.57-4.36,5.35-8.06,6.14,4.09-1,1.57-4.15-2.75L123,24.88l2.51,1.67-1,1.58L122,26.45l-1.1,1.66,4.56,3Z"/><path class="cls-2" d="M136.6,37.56a2.61,2.61,0,1,1,0-3.68A2.53,2.53,0,0,1,136.6,37.56Z"/><path class="cls-2" d="M137.84,46.68l8.23-5.09,2.81,4.55A2.72,2.72,0,0,1,148,50a2.09,2.09,0,0,1-1.59.3,2.53,2.53,0,0,1-1.3,2.41,2.9,2.9,0,0,1-4.11-1ZM144.05,49l-1.47-2.38-1.86,1.16,1.46,2.37A1.11,1.11,0,1,0,144.05,49Zm1.67-4.32-1.51.94,1.11,1.81a.92.92,0,1,0,1.52-.94Z"/><path class="cls-2" d="M147.7,53.87c2.88-1.17,5.67.19,6.85,3.11a5.8,5.8,0,0,1,.26,4.23l-2.05-.69a3.48,3.48,0,0,0,0-2.79,3.21,3.21,0,0,0-5.94,2.39,3.57,3.57,0,0,0,2,2.2l-1.12,1.76a5.87,5.87,0,0,1-2.73-3.22A5.11,5.11,0,0,1,147.7,53.87Z"/><path class="cls-2" d="M31.46,86.59a4.31,4.31,0,0,1-.39,3.68C29.74,92.51,27,93.7,23.15,93.7h-.26a39.86,39.86,0,0,1-11.24-1.59L11.42,92a.49.49,0,0,1-.32-.63l.76-2.34a.5.5,0,0,1,.63-.32l.24.08a37.18,37.18,0,0,0,10.19,1.42c1.24,0,4.21-.1,5.18-1.73a1,1,0,0,0,.13-.69,1.47,1.47,0,0,0-.84-.61,21.84,21.84,0,0,0-6.87-1l-1.3,0c-2.17-.11-4.62-.36-6.33-2a4.64,4.64,0,0,1-1.36-3.68c.08-1.34.77-3.19,3.58-4.47C19.69,73.87,27.59,74.4,31,77l.2.15a.51.51,0,0,1,.1.7l-1.49,2a.5.5,0,0,1-.7.1l-.2-.15c-2.43-1.85-9-2.2-12.41-.67-1,.46-1.53,1-1.57,1.55a1.28,1.28,0,0,0,.35,1c.84.82,2.54,1,4.07,1l1.27.05a24.48,24.48,0,0,1,8,1.22A4.71,4.71,0,0,1,31.46,86.59Z"/><path class="cls-2" d="M53,75.17a.5.5,0,0,1,.5-.5H55.9a.5.5,0,0,1,.5.5v18a.5.5,0,0,1-.5.5H53.45a.5.5,0,0,1-.5-.5V87a.48.48,0,0,0-.37-.48,12.72,12.72,0,0,0-5.49.32,15.5,15.5,0,0,1-5.56.43.49.49,0,0,0-.57.49v5.41a.5.5,0,0,1-.5.5H38a.5.5,0,0,1-.5-.5v-18a.5.5,0,0,1,.5-.5h2.45a.5.5,0,0,1,.5.5V83.3a.5.5,0,0,0,.38.49,12.87,12.87,0,0,0,5.45-.33A15.21,15.21,0,0,1,52.38,83a.49.49,0,0,0,.57-.49Z"/><path class="cls-2" d="M114.91,92.4l.44.43a.5.5,0,0,1-.35.86h-3.37a.49.49,0,0,1-.39-.19c-.44-.56-1.7-2.2-2.19-2.87l0,0c-2-2.75-3.49-4.57-6.35-4.76H96.19a.51.51,0,0,0-.5.5v6.87a.5.5,0,0,1-.5.5H92.74a.5.5,0,0,1-.5-.5v-18a.5.5,0,0,1,.5-.5h13.64a5.67,5.67,0,0,1,5.74,5.57,5.5,5.5,0,0,1-2.54,4.62.5.5,0,0,0-.08.77,27.6,27.6,0,0,1,2.32,2.92l0,0A29.92,29.92,0,0,0,114.91,92.4Zm-8.53-14.27H96.19a.51.51,0,0,0-.5.5v3.24a.51.51,0,0,0,.5.5h10.19a2.13,2.13,0,1,0,0-4.24Z"/><path class="cls-2" d="M120.07,93.21v-18a.5.5,0,0,1,.5-.5h16.32a.5.5,0,0,1,.5.5v2.45a.5.5,0,0,1-.5.5H124a.5.5,0,0,0-.5.5v4.09a.5.5,0,0,0,.51.5,15.07,15.07,0,0,0,2.92-.38,11.66,11.66,0,0,1,6.5.07.5.5,0,0,1,.33.47v2.51a.5.5,0,0,1-.67.47l-.33-.12a6.78,6.78,0,0,0-2.26-.36h0a19.24,19.24,0,0,0-3.3.39,22.89,22.89,0,0,1-3.21.4.51.51,0,0,0-.49.5v2.58a.5.5,0,0,0,.5.5h12.87a.5.5,0,0,1,.5.5V93.2a.5.5,0,0,1-.5.5H120.57A.5.5,0,0,1,120.07,93.21Z"/><path class="cls-2" d="M162.4,86.59a4.31,4.31,0,0,1-.39,3.68c-1.33,2.24-4.07,3.43-7.92,3.43h-.26a39.66,39.66,0,0,1-11.23-1.59l-.24-.08a.5.5,0,0,1-.32-.63l.76-2.34a.51.51,0,0,1,.63-.32l.24.08a37.18,37.18,0,0,0,10.19,1.42c1.24,0,4.21-.1,5.18-1.73a.87.87,0,0,0,.13-.69,1.47,1.47,0,0,0-.84-.61,21.84,21.84,0,0,0-6.87-1l-1.3,0c-2.17-.11-4.62-.36-6.32-2a4.62,4.62,0,0,1-1.37-3.68c.08-1.34.77-3.19,3.58-4.47,4.58-2.1,12.48-1.57,15.93,1.06l.2.15a.51.51,0,0,1,.1.7l-1.49,2a.5.5,0,0,1-.7.1l-.2-.15c-2.43-1.85-9-2.2-12.41-.67-1,.46-1.53,1-1.56,1.55a1.24,1.24,0,0,0,.34,1c.84.82,2.54,1,4.07,1l1.27.05a24.48,24.48,0,0,1,8,1.22A4.71,4.71,0,0,1,162.4,86.59Z"/><path class="cls-3" d="M82.23,94.14a2.89,2.89,0,0,1-.63-.74.61.61,0,0,1,.46-.47.25.25,0,0,0,.2-.15c.09-.25.63.13,1.41,1,.37.41.87.94,1.11,1.19.49.5.51.56.3,1-.3.58-.42.59-1,.1-.27-.25-.61-.58-.75-.74s-.31-.35-.38-.42l-.76-.72Zm-1.59-8.49c0-.12-.06-.24-.06-.26a1.57,1.57,0,0,1,.13-.38l.15-.36H82.5l4,0,2.41,0,.06.26a.68.68,0,0,1,0,.45c-.07.11-.1.25-.06.3.2.33-.14.36-3.86.34-4.83,0-4.36,0-4.41-.27Zm-.11-1.54c-.16-.89,0-1.07,1-1.17a9.23,9.23,0,0,0,1.08-.16,4.93,4.93,0,0,1,.75-.16,6.33,6.33,0,0,0,1.77-.53,2.13,2.13,0,0,1,.65-.18,8.53,8.53,0,0,0,1.37-.37,3.44,3.44,0,0,1,1.09-.25c.14,0,.22.35.16.61a1.92,1.92,0,0,0,0,.36,2.91,2.91,0,0,1,0,.33,1.45,1.45,0,0,1-.55.18,3.43,3.43,0,0,0-.65.2,1.37,1.37,0,0,1-.32.15l-1.3.37a23.17,23.17,0,0,1-4.26.8c-.67.07-.69.06-.74-.18Zm0,3.51a1.33,1.33,0,0,1,.06-1.18.35.35,0,0,1,.31-.09,2.7,2.7,0,0,0,.6.11l.68.11.4.09a2.43,2.43,0,0,1,.47.15,22,22,0,0,0,3.22,1,11.5,11.5,0,0,1,1.29.32,3.4,3.4,0,0,0,.64.16,1,1,0,0,1,.45.24c.25.21.27.28.2.67s-.07.53-1.67.12c-.67-.18-1.45-.36-1.74-.41s-.9-.22-1.36-.36a16.16,16.16,0,0,0-2.64-.68,3.94,3.94,0,0,1-.91-.23Zm-.65-5a1.68,1.68,0,0,1,0-1.11.43.43,0,0,1,.28-.13,1.59,1.59,0,0,0,.62-.4,3.73,3.73,0,0,1,1-.64,13.17,13.17,0,0,0,2.94-1.55,1.64,1.64,0,0,1,.49-.31.1.1,0,0,0,.11-.1,1.74,1.74,0,0,1,.54-.45c.42-.29.58-.34.73-.26s.18.18.14.48c-.12.81-.2,1-.37,1.11a1.21,1.21,0,0,0-.38.23,15.45,15.45,0,0,1-3.86,2.14,4.46,4.46,0,0,0-1.18.63c-.47.4-1,.57-1.12.36Zm-.68,6.42c-.17-.16-.05-.55.28-.91s.32-.31.56-.21.26.17.26.22.06.07.13,0,.35,0,1.12.52a19.87,19.87,0,0,1,2,1.38,7.38,7.38,0,0,0,1.17.72,3.51,3.51,0,0,1,.82.49,4.48,4.48,0,0,0,.88.51c1,.49,1,.54.71,1.11-.21.35-.32.45-.47.41s-.18-.1-.15-.15,0-.07-.08,0a1.33,1.33,0,0,1-.63-.26,3.87,3.87,0,0,0-.55-.31,1.64,1.64,0,0,1-.33-.19c-.16-.11-.59-.36-1-.56a10.53,10.53,0,0,1-1.24-.78,29.2,29.2,0,0,0-3.26-1.89.36.36,0,0,1-.21-.11Zm-.36-7.85c-.31-.64-.25-.8.6-1.6.43-.41,1-1,1.34-1.4a10.16,10.16,0,0,1,1-1c.25-.21.95-.86,1.54-1.44a9.39,9.39,0,0,1,1.18-1.06c.25,0,.46.51.41,1s-.14.53-1,1.37c-.53.5-1.09,1-1.24,1.12s-1,.92-1.81,1.78a11.29,11.29,0,0,1-1.72,1.58c-.1,0-.24-.13-.32-.29Zm-.22,9.54c-.25-.2-.27-.26-.17-.51.16-.43.4-.65.7-.65s.63.21.63.35a.53.53,0,0,0,.15.22c.08.08.23.26.34.39a2.32,2.32,0,0,0,.52.44c.19.11.34.26.34.33s0,.11.1.08.42.5.35.79-.32.61-.44.61a11.67,11.67,0,0,1-1.72-1.33l-.8-.72ZM77.33,80.31a1.28,1.28,0,0,1,.16-1.45c.4-.57,1.38-2.23,2-3.33a9,9,0,0,1,.55-.91.49.49,0,0,0,.15-.25,2.4,2.4,0,0,1,.29-.6,4.53,4.53,0,0,0,.43-.85,3.36,3.36,0,0,1,.41-.7c.24-.29.29-.31.47-.18s.2.31.24.7a2.17,2.17,0,0,1-.33,1.34,21.92,21.92,0,0,1-1.35,2.43c-.25.4-.54.92-.67,1.17a9.58,9.58,0,0,1-2,2.82.48.48,0,0,1-.27-.19Zm-.8,10.93a.21.21,0,0,1-.06-.22,2.49,2.49,0,0,0,.11-.27.84.84,0,0,1,.41-.32c.31-.14.37-.14.61,0a.81.81,0,0,1,.32.42A3,3,0,0,0,78.51,92s.08.1.08.22.31.81.44.81.08.09.08.19a.75.75,0,0,0,.18.4A2.55,2.55,0,0,1,80,94.93s.05.07.14.07a.15.15,0,0,1,.15.14,1.71,1.71,0,0,0,.31.57,2.06,2.06,0,0,1,.31.54.11.11,0,0,0,.1.1s.16.16.23.36.16.36.2.36a1.67,1.67,0,0,1,.3.46c.23.45.23.46,0,.72s-.53.44-.8.19a18.55,18.55,0,0,1-1.1-1.57c-.49-.75-1-1.58-1.22-1.85A10.08,10.08,0,0,1,78,94c-.66-1.3-1.4-2.68-1.5-2.78Zm-1-12c-.18-.07-.32-.16-.32-.21s.43-1.68.82-3a16.73,16.73,0,0,0,.37-1.65,17.52,17.52,0,0,1,.9-3.49c.21-.45.28-.5.6-.53a.86.86,0,0,1,.66.21l.29.24-.21.41a22.51,22.51,0,0,0-1,3.52c-.1.4-.19.82-.2.93a2.67,2.67,0,0,1-.29.95,1.25,1.25,0,0,0-.15.42,3.85,3.85,0,0,1-.14.63.34.34,0,0,0,0,.1,7.4,7.4,0,0,1-.26.8l-.2.49c-.12.32-.31.36-.83.18Zm-.26,13.47c-.22-.7-.2-.82.21-1.2s.85-.47.87-.27a5.08,5.08,0,0,0,.38,1.68,3.86,3.86,0,0,1,.18.62,5,5,0,0,0,.21.73,4,4,0,0,1,.33,1,4.45,4.45,0,0,0,.23.73,6.07,6.07,0,0,1,.39,2,1.3,1.3,0,0,0,.07.55c.18.64.11.93-.27,1.21s-.34.22-.46.06a.82.82,0,0,1-.13-.4.58.58,0,0,0-.1-.32,2.93,2.93,0,0,1-.22-.87A15.88,15.88,0,0,0,76,95.18a7.45,7.45,0,0,1-.32-1.13,1.73,1.73,0,0,0-.15-.53,6.48,6.48,0,0,1-.3-.8ZM73.29,74.85s0-.73,0-3.62V70.09l.32-.14a.62.62,0,0,1,.59,0c.31.13.68.69.58.87a2.77,2.77,0,0,0-.1.79c0,.38-.06,1-.08,1.38a1.76,1.76,0,0,0,0,.76c.06,0,.07.25,0,.49a17.32,17.32,0,0,0,0,3c0,.22.11.68.15,1,.07.58.06.59-.24.75-.62.32-.93.16-1-.53,0-.22-.07-.56-.1-.75s-.08-.91-.1-1.59a12.61,12.61,0,0,0-.07-1.27Zm0,22.55a7.7,7.7,0,0,1,0-1c0-.45,0-1.67.08-2.69,0-1.73.07-1.87.26-2s.21-.14.21-.18.6-.1.83,0,.2.21.19.49a1.47,1.47,0,0,1-.08.49c-.07.11-.09.34-.13,1.62a5,5,0,0,1-.09,1,9.2,9.2,0,0,0,0,1.33c0,.7,0,1.83.06,2.5l0,1.24-.26.07a2.48,2.48,0,0,1-.56,0h-.31L73.39,99c0-.76-.09-1.46-.11-1.55ZM69.8,72.21a.17.17,0,0,1,0-.22c.06,0,.07-.21,0-.39s0-.33.19-.44,1,0,1,.17a.17.17,0,0,0,.05.21.41.41,0,0,1,.1.29.8.8,0,0,0,.15.44.8.8,0,0,1,.15.38,1,1,0,0,0,.1.37,8,8,0,0,1,.32,1c.13.46.27,1,.32,1.09s.26.89.45,1.66.42,1.59.49,1.82a1.32,1.32,0,0,1,.06.58,1.57,1.57,0,0,1-1.1.35,11,11,0,0,1-.8-2.49c-.09-.4-.22-.91-.3-1.14s-.35-1.12-.62-2-.52-1.62-.56-1.71Zm-3.44,1.6c-.19-.18-.22-.36-.06-.47s0-.17,0-.3c-.18-.34-.07-.47.4-.5s.8.11.87.49a1.29,1.29,0,0,0,.27.52,2,2,0,0,1,.36.55,2.08,2.08,0,0,0,.36.56,1.26,1.26,0,0,1,.28.52,1.69,1.69,0,0,0,.15.4c.1.12.78,1.4,1,1.89.09.18.2.34.24.34s.09.06.09.14a5.14,5.14,0,0,0,.4.94,2.68,2.68,0,0,1,.36.94,1.48,1.48,0,0,1-.81.46c-.18,0-.4-.27-.74-.88-.16-.28-.39-.7-.53-.93s-.34-.63-.45-.88-.3-.65-.43-.88-.38-.73-.57-1.12a2.65,2.65,0,0,0-.44-.7,1.28,1.28,0,0,1-.31-.46,3.33,3.33,0,0,0-.43-.63Zm-.2,24.09a.77.77,0,0,1,.17-.59,8.07,8.07,0,0,0,.56-1.14,13.55,13.55,0,0,1,2-3.5,13.71,13.71,0,0,0,1-1.23c.54-.77.84-.91,1.42-.64a1.3,1.3,0,0,1,.42.27.51.51,0,0,0,.34.1c.37,0,.78.37.69.61a3.31,3.31,0,0,0-.17.63c0,.26-.17.78-.26,1.17a2.68,2.68,0,0,0-.09.8.26.26,0,0,1,0,.27,1.08,1.08,0,0,0-.16.48,18.67,18.67,0,0,1-.36,2.27,6.78,6.78,0,0,0-.16.83c0,.25-.11.64-.16.87s-.13.52-.16.65c-.08.32-.37.45-.85.37s-.58-.24-.44-.7.29-1.33.63-3.54c.12-.74.28-1.75.37-2.24A11.58,11.58,0,0,0,71,92.4v-.35l-.28.36c-.15.19-.45.53-.66.75a5.37,5.37,0,0,0-.67.88c-.16.27-.44.73-.63,1a2.36,2.36,0,0,0-.34.67.63.63,0,0,1-.13.31,4.47,4.47,0,0,0-.42.84,4.66,4.66,0,0,1-.54,1c-.45.48-1.08.52-1.19.07Zm-2.72-1.41a1.53,1.53,0,0,1,0-.58c0-.48.07-.55.65-1.07a4.12,4.12,0,0,1,.68-.56,15.73,15.73,0,0,0,2.84-2.85l1-1.19.54-.61c.48-.56.85-.25.8.66,0,.6,0,.57-1.06,1.65-.53.54-1.14,1.23-1.37,1.53a13.49,13.49,0,0,1-2.6,2.35c-.88.67-1.3.86-1.48.67Zm.07-20.12c-.51-.52-.54-.57-.43-.88s.45-.68.67-.69a2.26,2.26,0,0,1,.62.48c.28.26.89.83,1.38,1.27s1.25,1.16,1.71,1.62,1.05,1,1.32,1.23a4.14,4.14,0,0,1,.79.89l.3.49-.32.38a1.41,1.41,0,0,1-.43.38,19,19,0,0,1-2.12-2c-.32-.32-.79-.76-1-1-.85-.7-1.9-1.65-2.45-2.21Zm-2.35,16.9a1.61,1.61,0,0,1,0-1,1.35,1.35,0,0,1,.59-.37,3.22,3.22,0,0,0,.61-.27c.06,0,.6-.33,1.2-.64s1.19-.62,1.33-.72a1,1,0,0,1,.44-.18c.1,0,.18,0,.18-.1s.07-.1.16-.1.15,0,.15-.09a3.39,3.39,0,0,1,.7-.49l.87-.51c1.18-.73,1.37-.7,1.31.19,0,.71-.21.89-1.27,1.43-.34.18-.95.52-1.36.76a25.33,25.33,0,0,1-4.7,2.23.25.25,0,0,1-.24-.18Zm0-14.2c-.43-.38,0-1.45.51-1.26A.76.76,0,0,1,62,78a.19.19,0,0,0,.22,0,.16.16,0,0,1,.21.11c0,.09.11.16.16.16a4.21,4.21,0,0,1,.73.43c.34.23.86.55,1.16.71a10.7,10.7,0,0,1,1.1.62,3.59,3.59,0,0,0,.78.46,3.23,3.23,0,0,1,.62.42c.17.15.55.44.84.64a2.5,2.5,0,0,1,.59.49,1.65,1.65,0,0,1-.51,1,9,9,0,0,1-1.53-.9c-.77-.51-1.44-.94-1.47-.94s-.69-.36-1.43-.81-1.52-.9-1.72-1a3.14,3.14,0,0,1-.55-.34Zm-1.43,10.7c-.06,0-.09-.26-.07-.49,0-.54.41-.79,1.19-.8a1.23,1.23,0,0,0,.59-.09,3.28,3.28,0,0,1,1.36-.3,2.27,2.27,0,0,0,.77-.19,9.6,9.6,0,0,1,1-.37l.83-.25.28-.1c.13,0,.24-.11.24-.15s.22-.14.49-.22a1.5,1.5,0,0,0,.57-.24c.13-.18.6.43.55.7s-.07.34-.1.49c-.07.31-.18.37-1.57.8a21.65,21.65,0,0,1-3.19.84c-.62.12-1.16.24-1.2.26a7.65,7.65,0,0,1-1.78.11Zm-1.13-4a3.14,3.14,0,0,1,0-1.17,2.37,2.37,0,0,1,1.1.12c.11.07,6.77.05,6.85,0a1.69,1.69,0,0,0-.61-.21l-1.37-.39c-.4-.12-1-.28-1.25-.35-.5-.13-3-1.06-3.58-1.3-.26-.12-.27-.16-.18-.51.17-.6.31-.7.86-.55.26.07.94.31,1.5.53a12.07,12.07,0,0,0,1.58.53l.7.14a4.67,4.67,0,0,1,.45.15,1.47,1.47,0,0,0,.47.12.47.47,0,0,1,.28.09,5.32,5.32,0,0,0,1.7.44,3.2,3.2,0,0,1,.91.22.49.49,0,0,1-.07.6.59.59,0,0,0-.19.68,1.37,1.37,0,0,1-.11,1S66.27,86,64.7,86l-3.67.1a5.3,5.3,0,0,1-2.43-.35Z"/><path class="cls-2" d="M74.54,55.89a.24.24,0,0,1-.25-.25v-.86a.23.23,0,0,1,.25-.24h6.28a.23.23,0,0,1,.25.24v.86a.24.24,0,0,1-.25.25h-2a.24.24,0,0,0-.25.25v5.08a.22.22,0,0,1-.24.24H77.06a.23.23,0,0,1-.25-.24V56.14a.24.24,0,0,0-.25-.25Z"/><path class="cls-2" d="M88.32,58.92a.24.24,0,0,0-.25-.25H85.46a.24.24,0,0,0-.25.25v2.3a.23.23,0,0,1-.25.24H83.73a.23.23,0,0,1-.24-.24V54.78a.23.23,0,0,1,.24-.24H85a.23.23,0,0,1,.25.24v2.3a.24.24,0,0,0,.25.25h2.61a.24.24,0,0,0,.25-.25v-2.3a.23.23,0,0,1,.25-.24h1.22a.23.23,0,0,1,.25.24v6.44a.23.23,0,0,1-.25.24H88.57a.23.23,0,0,1-.25-.24Z"/><path class="cls-2" d="M98.5,60.11a.24.24,0,0,1,.25.25v.86a.23.23,0,0,1-.25.24H93.35a.23.23,0,0,1-.25-.24V54.78a.23.23,0,0,1,.25-.24h4.79a.23.23,0,0,1,.24.24v.86a.23.23,0,0,1-.24.25H95.07a.24.24,0,0,0-.25.25v.94a.24.24,0,0,0,.25.25h1.67a.23.23,0,0,1,.25.24v.87a.23.23,0,0,1-.25.24H95.07a.24.24,0,0,0-.25.25v.93a.24.24,0,0,0,.25.25Z"/></g></g></svg>