<svg xmlns="http://www.w3.org/2000/svg" viewBox="0 0 25.55 36.45"><defs><style>.cls-1{fill:#004e59;}</style></defs><g id="Layer_2" data-name="Layer 2"><g id="Layer_1-2" data-name="Layer 1"><path class="cls-1" d="M1.55,35.32a1.59,1.59,0,0,0,2,1.06c1.36,0,2.91,0,4.36,0,3,0,10.51-.07,13.89-.08.72-.08,1.28-.43,1.21-1.27s-1.18-1.11-1.18-1.11l-7.23-.17a.44.44,0,0,1-.43-.45c.07-3.31.26-6.56.39-9.66,7-.59,12.16-7.35,10.73-14.08-.77-2.95-2.38-6.73-3.2-9.49H20.47c-3.7,0-9.17,0-12.88,0-1.09,0-3,0-4.23,0L1.73,4.72c-4.19,8.19-.62,17.72,9.14,18.68a.27.27,0,0,1,.24.28c0,3.19,0,6.38,0,9.58a.32.32,0,0,1-.3.31c-2.45,0-4.9.11-7.35.18C3.49,33.75,1,33.77,1.55,35.32ZM5,3.38a1.12,1.12,0,0,1,.53-.69,1.75,1.75,0,0,1,.76,0c4.45.25,9.36-.82,13.84-.32a.61.61,0,0,1,.53.44c.56,2,.91,4,1.22,5.55C16.17,8.93,9,9.81,3.09,9.46c-.36,0-.06-.8,0-1.16A43.77,43.77,0,0,1,5,3.38ZM9.12,20.3A7.89,7.89,0,0,1,3,12a127.3,127.3,0,0,1,19.39-.67.69.69,0,0,1,.66.7,8.44,8.44,0,0,1-3.62,6.24C16.51,20.43,12.65,20.67,9.12,20.3Z"/></g></g></svg>